Coordinates
version=1
nRows=31
nColumns=34
inDegrees=yes
inDegrees=no

Units are S.I. units (second, meters, Newtons, ...)
If the header above contains a line with 'inDegrees', this indicates whether rotational values are in degrees (yes) or radians (no).

endheader
time	pelvis_tilt	pelvis_list	pelvis_rotation	pelvis_tx	pelvis_ty	pelvis_tz	hip_flexion_r	hip_adduction_r	hip_rotation_r	knee_angle_r	ankle_angle_r	subtalar_angle_r	mtp_angle_r	hip_flexion_l	hip_adduction_l	hip_rotation_l	knee_angle_l	ankle_angle_l	subtalar_angle_l	mtp_angle_l	lumbar_extension	lumbar_bending	lumbar_rotation	arm_flex_r	arm_add_r	arm_rot_r	elbow_flex_r	pro_sup_r	arm_flex_l	arm_add_l	arm_rot_l	elbow_flex_l	pro_sup_l
5.416667 0.352509 -0.138629 0.062880 -0.014876 0.008111 -0.004040 1.252953 0.030004 -0.254746 0.798481 0.495909 0.193845 0.000000 1.261896 0.004170 0.013053 0.652512 -0.134192 -0.273676 0.000000 -0.670870 0.044828 0.217903 0.754189 -0.161183 0.229063 1.189997 1.381064 -0.003381 -0.684737 0.144715 1.433039 1.245336
5.433333 0.357565 -0.142430 0.053119 -0.014987 0.008122 -0.004043 1.242923 0.041550 -0.258319 0.790226 0.480420 0.158744 0.000000 1.258385 -0.009008 0.009775 0.656841 -0.122578 -0.257557 0.000000 -0.662926 0.041555 0.192313 0.753216 -0.161984 0.224084 1.215181 1.391750 0.038589 -0.664618 0.138071 1.364964 1.245123
5.450000 0.369458 -0.148474 0.044817 -0.015104 0.008055 -0.003964 1.229547 0.060900 -0.261535 0.771405 0.454411 0.145835 0.000000 1.247985 -0.024544 0.009082 0.647500 -0.125283 -0.245894 0.000000 -0.664489 0.041645 0.171457 0.776516 -0.165016 0.231282 1.227808 1.406691 0.104600 -0.655717 0.156621 1.299405 1.249595
5.466667 0.377803 -0.150211 0.043064 -0.015058 0.008056 -0.003957 1.218909 0.068705 -0.258310 0.763147 0.428136 0.127675 0.000000 1.242691 -0.029262 0.008968 0.650932 -0.124091 -0.235780 0.000000 -0.669676 0.040887 0.130046 0.801150 -0.154817 0.234938 1.253145 1.409780 0.142728 -0.648876 0.148226 1.267204 1.248931
5.483333 0.390455 -0.161446 0.035467 -0.015193 0.008084 -0.004005 1.206703 0.086340 -0.258690 0.760539 0.396897 0.092000 0.000000 1.231630 -0.042663 0.014867 0.651611 -0.115066 -0.223271 0.000000 -0.684117 0.050160 0.110915 0.862220 -0.162323 0.254020 1.235442 1.419914 0.213543 -0.625568 0.152147 1.218617 1.252704
5.500000 0.396539 -0.162015 0.027531 -0.015209 0.008080 -0.003973 1.209188 0.091091 -0.260989 0.779263 0.373835 0.081945 0.000000 1.230147 -0.047902 0.017191 0.663374 -0.109529 -0.227756 0.000000 -0.699251 0.047002 0.082975 0.925057 -0.160516 0.256681 1.237252 1.424244 0.272828 -0.611222 0.146739 1.198035 1.254426
5.516667 0.391622 -0.170317 0.023868 -0.015106 0.008075 -0.003964 1.217339 0.097793 -0.269852 0.795992 0.392540 0.069193 0.000000 1.243593 -0.056244 0.021488 0.676090 -0.109716 -0.229807 0.000000 -0.700341 0.052289 0.055079 0.972164 -0.159163 0.259115 1.252362 1.428370 0.316327 -0.597971 0.137042 1.187157 1.256015
5.533333 0.397072 -0.178185 0.015052 -0.015328 0.008098 -0.004016 1.214244 0.104309 -0.277226 0.810678 0.384564 0.059662 0.000000 1.237257 -0.066487 0.022061 0.670675 -0.112834 -0.233111 0.000000 -0.719510 0.059457 0.027230 1.031535 -0.152485 0.276294 1.272022 1.437457 0.375148 -0.584371 0.120991 1.168334 1.261006
5.550000 0.403921 -0.182241 0.012888 -0.015318 0.008093 -0.004032 1.207631 0.105607 -0.281337 0.807548 0.398957 0.090833 0.000000 1.229529 -0.073443 0.023579 0.661802 -0.120594 -0.261256 0.000000 -0.741210 0.066852 -0.002349 1.100855 -0.140086 0.286810 1.293372 1.443027 0.433364 -0.580017 0.114511 1.152202 1.264873
5.566667 0.399850 -0.185322 0.009022 -0.015299 0.008169 -0.004062 1.204652 0.105698 -0.288137 0.796540 0.405693 0.107836 0.000000 1.226533 -0.076328 0.023232 0.650956 -0.122184 -0.277103 0.000000 -0.744639 0.072096 -0.028621 1.159606 -0.142359 0.307828 1.293668 1.454136 0.485230 -0.563193 0.105683 1.125277 1.272907
5.583333 0.387810 -0.185180 0.004589 -0.015138 0.008142 -0.004019 1.211057 0.106624 -0.290036 0.780988 0.415704 0.163194 0.000000 1.239457 -0.081584 0.019472 0.657217 -0.116408 -0.283834 0.000000 -0.737224 0.071043 -0.047847 1.217331 -0.147055 0.318494 1.304559 1.462964 0.533070 -0.546496 0.099803 1.115703 1.281090
5.600000 0.369672 -0.183974 0.008002 -0.015057 0.008151 -0.004056 1.225609 0.096977 -0.288776 0.780039 0.417063 0.186627 0.000000 1.263645 -0.074171 0.017631 0.677132 -0.101836 -0.282331 0.000000 -0.721630 0.071985 -0.067855 1.257521 -0.160456 0.324387 1.319020 1.480543 0.596663 -0.518573 0.106010 1.085533 1.301504
5.616667 0.345692 -0.182690 -0.000393 -0.015033 0.008131 -0.004045 1.251852 0.095439 -0.288819 0.789830 0.453837 0.229368 0.000000 1.287009 -0.077768 0.012018 0.684344 -0.086447 -0.259354 0.000000 -0.705531 0.063086 -0.085433 1.303619 -0.161688 0.317935 1.343893 1.490140 0.657991 -0.498880 0.108411 1.068907 1.313888
5.633333 0.322083 -0.185893 -0.004062 -0.015038 0.008090 -0.004078 1.278583 0.089910 -0.285569 0.796468 0.453435 0.254620 0.000000 1.316662 -0.075913 0.013674 0.686178 -0.096612 -0.244448 0.000000 -0.696257 0.051426 -0.099967 1.344969 -0.186759 0.308605 1.398667 1.509440 0.765416 -0.487710 0.170100 1.009596 1.343343
5.650000 0.310638 -0.191722 -0.012453 -0.015046 0.008077 -0.004076 1.291339 0.096678 -0.291190 0.801673 0.482763 0.321329 0.000000 1.325987 -0.082797 0.011063 0.673450 -0.095422 -0.221491 0.000000 -0.695702 0.042921 -0.135127 1.395074 -0.181812 0.306155 1.425654 1.515832 0.836115 -0.492175 0.176914 0.980909 1.350203
5.666667 0.312542 -0.198282 -0.016579 -0.015242 0.008146 -0.004155 1.277551 0.102425 -0.285961 0.767742 0.424342 0.295280 0.000000 1.318442 -0.084082 0.016372 0.659647 -0.108731 -0.204966 0.000000 -0.713626 0.038629 -0.158454 1.457354 -0.189844 0.319181 1.442084 1.532891 0.930986 -0.489362 0.226570 0.924421 1.365778
5.683333 0.317258 -0.189858 -0.026374 -0.015288 0.008147 -0.004269 1.255022 0.100941 -0.283434 0.703256 0.315376 0.187341 0.000000 1.300463 -0.079318 0.011657 0.644377 -0.114178 -0.209878 0.000000 -0.738649 0.024489 -0.194774 1.550774 -0.176692 0.343324 1.420693 1.544107 1.015293 -0.498305 0.264212 0.887130 1.371005
5.700000 0.311950 -0.174567 -0.030293 -0.015208 0.008235 -0.004275 1.240750 0.084762 -0.284498 0.650707 0.153256 0.053959 0.000000 1.295111 -0.066273 0.010127 0.644785 -0.125698 -0.231079 0.000000 -0.758442 0.007339 -0.234588 1.631327 -0.166254 0.361920 1.419308 1.552575 1.085131 -0.505968 0.282293 0.870450 1.372242
5.716667 0.282847 -0.168418 -0.037927 -0.015005 0.008364 -0.004251 1.254334 0.079295 -0.302123 0.647419 0.117884 0.045771 0.000000 1.313227 -0.065490 0.006887 0.648107 -0.127401 -0.234223 0.000000 -0.747070 -0.006479 -0.274311 1.671970 -0.155431 0.368879 1.451135 1.556594 1.122294 -0.512224 0.282502 0.865784 1.371692
5.733333 0.257197 -0.179079 -0.054489 -0.014969 0.008267 -0.004282 1.279869 0.091154 -0.314678 0.669821 0.159052 0.071523 0.000000 1.350020 -0.079469 0.030178 0.674476 -0.115946 -0.236759 0.000000 -0.739076 -0.010136 -0.289627 1.735988 -0.158667 0.396194 1.461103 1.569215 1.160331 -0.514646 0.284411 0.871540 1.368183
5.750000 0.234971 -0.189017 -0.059749 -0.014961 0.008219 -0.004290 1.313121 0.089254 -0.315087 0.696475 0.170380 0.087303 0.000000 1.384147 -0.081013 0.057684 0.704662 -0.113094 -0.255331 0.000000 -0.734649 -0.004381 -0.306237 1.804620 -0.158784 0.417217 1.472841 1.577770 1.198456 -0.510780 0.281632 0.877222 1.363922
5.766667 0.229541 -0.191668 -0.056076 -0.015003 0.008197 -0.004274 1.321182 0.082999 -0.308035 0.684908 0.083723 0.047914 0.000000 1.393448 -0.076014 0.068574 0.721553 -0.107495 -0.281773 0.000000 -0.748545 -0.005113 -0.331685 1.876854 -0.157670 0.441185 1.478742 1.587221 1.252093 -0.508561 0.280535 0.874679 1.356530
5.783333 0.212006 -0.192117 -0.047062 -0.014778 0.008164 -0.004225 1.339069 0.072318 -0.296904 0.666733 -0.025162 -0.027430 0.000000 1.411722 -0.068050 0.073821 0.732941 -0.100001 -0.322457 0.000000 -0.744390 -0.010028 -0.364544 1.924301 -0.163911 0.464338 1.498242 1.595343 1.298959 -0.507246 0.283191 0.867937 1.346967
5.800000 0.190694 -0.189835 -0.035085 -0.014662 0.008248 -0.004263 1.341544 0.056564 -0.288126 0.626512 -0.142101 -0.098063 0.000000 1.425877 -0.057281 0.061781 0.725728 -0.117662 -0.371937 0.000000 -0.737960 -0.019629 -0.407330 1.946755 -0.175521 0.474731 1.546225 1.601231 1.337117 -0.510036 0.283185 0.860974 1.335637
5.816667 0.162320 -0.190128 -0.037588 -0.014615 0.008270 -0.004256 1.353466 0.052774 -0.294265 0.595939 -0.215653 -0.137695 0.000000 1.448510 -0.058107 0.056466 0.725562 -0.136134 -0.410206 0.000000 -0.727828 -0.032451 -0.436307 1.969043 -0.176889 0.493551 1.576489 1.606274 1.374288 -0.512770 0.278954 0.848916 1.325382
5.833333 0.117043 -0.215278 -0.085715 -0.014720 0.008196 -0.004266 1.406683 0.097150 -0.342414 0.676097 -0.143699 -0.083429 0.000000 1.491765 -0.099830 0.082625 0.713565 -0.136111 -0.397342 0.000000 -0.709345 -0.026493 -0.412544 2.031773 -0.151978 0.530652 1.562804 1.613467 1.418302 -0.518091 0.266913 0.820839 1.305399
5.850000 0.094588 -0.212816 -0.089913 -0.014586 0.008207 -0.004275 1.428511 0.087131 -0.319843 0.663769 -0.174698 -0.157915 0.000000 1.523831 -0.095903 0.078812 0.736499 -0.116509 -0.379597 0.000000 -0.711999 -0.032086 -0.437071 2.072595 -0.137901 0.556484 1.566740 1.617143 1.460288 -0.527752 0.256201 0.805913 1.291760
5.866667 0.087039 -0.210939 -0.088932 -0.014538 0.008205 -0.004286 1.419405 0.079939 -0.325820 0.629896 -0.213007 -0.155338 0.000000 1.526738 -0.090159 0.068753 0.721130 -0.136629 -0.377932 0.000000 -0.726697 -0.034891 -0.446662 2.126912 -0.119365 0.587852 1.533074 1.618980 1.515591 -0.525947 0.277777 0.760190 1.252039
5.883333 0.059314 -0.214547 -0.090378 -0.014430 0.008133 -0.004248 1.443041 0.070396 -0.337883 0.623344 -0.220194 -0.161945 0.000000 1.563768 -0.087117 0.071566 0.729219 -0.151092 -0.357032 0.000000 -0.722293 -0.035503 -0.457949 2.159244 -0.097415 0.601953 1.519098 1.618301 1.557652 -0.528690 0.280272 0.729559 1.237017
5.900000 0.042836 -0.209374 -0.096828 -0.014498 0.008067 -0.004254 1.449906 0.075062 -0.326261 0.587030 -0.259299 -0.153491 0.000000 1.580034 -0.093095 0.062774 0.722636 -0.160947 -0.346583 0.000000 -0.735424 -0.047800 -0.460721 2.209061 -0.073893 0.619196 1.469568 1.615866 1.616643 -0.523254 0.291719 0.685941 1.219685
5.916667 0.020305 -0.217976 -0.107921 -0.014579 0.008083 -0.004276 1.467341 0.082810 -0.335669 0.574572 -0.277708 -0.140960 0.000000 1.603345 -0.100664 0.083849 0.722985 -0.188345 -0.366595 0.000000 -0.753438 -0.050395 -0.437544 2.269791 -0.068297 0.647973 1.430694 1.590954 1.692852 -0.505853 0.372747 0.621864 1.150634
